<svg height="511pt" viewBox="-1 0 511 511.99976" width="511pt" xmlns="http://www.w3.org/2000/svg"><path d="m13.648438 332.449219s-11.660157 83.296875 74.511718 91.273437l12.902344-45.386718-41.5-16.214844-26.707031-33.304688zm0 0" fill="#ffd46a"/><path d="m497.621094 332.449219s11.660156 83.296875-74.511719 91.273437l-12.898437-45.386718 41.496093-16.214844 26.707031-33.304688zm0 0" fill="#ffd46a"/><path d="m478.414062 328.820312-26.707031 33.300782-41.496093 16.214844 12.898437 45.390624c14.609375-1.355468 26.398437-4.875 35.917969-9.785156 13.496094-26.011718 21.875-54.476562 24.609375-84.132812zm0 0" fill="#ffa92d"/><path d="m59.5625 362.121094-26.707031-33.300782-5.21875.984376c2.734375 29.660156 11.113281 58.125 24.609375 84.136718 9.519531 4.910156 21.308594 8.429688 35.917968 9.78125l12.898438-45.386718zm0 0" fill="#ffa92d"/><path d="m6.277344 250.394531s-31.371094 88.816407 53.285156 111.726563l17.410156-22.761719-24.582031-31.066406-13.609375-44.714844zm0 0" fill="#fc5c70"/><path d="m504.996094 250.394531s31.367187 88.816407-53.289063 111.726563l-17.40625-22.761719 24.582031-31.066406 13.605469-44.714844zm0 0" fill="#fc5c70"/><path d="m458.882812 308.292969-24.582031 31.066406 17.40625 22.761719c11.972657-3.242188 21.621094-7.796875 29.367188-13.238282 2.351562-13.265624 3.5625-26.835937 3.5625-40.589843 0-16.203125-1.683594-32.148438-4.929688-47.644531l-7.21875 2.929687zm0 0" fill="#f8485e"/><path d="m30.195312 348.882812c7.75 5.441407 17.398438 10 29.371094 13.238282l17.40625-22.761719-24.582031-31.066406-13.609375-44.714844-7.214844-2.929687c-3.25 15.496093-4.929687 31.441406-4.929687 47.644531 0 13.753906 1.210937 27.324219 3.558593 40.589843zm0 0" fill="#f8485e"/><path d="m16.003906 193.355469c-6.703125-2.816407-14.230468 1.589843-14.9375 8.828125-2.269531 23.277344-.03125 72.648437 51.324219 106.109375l12.824219-71.363281s-16.890625-29.988282-49.210938-43.574219zm0 0" fill="#ffd46a"/><path d="m495.265625 193.355469c6.703125-2.816407 14.230469 1.589843 14.9375 8.828125 2.273437 23.277344.035156 72.648437-51.320313 106.109375l-12.824218-71.363281s16.886718-29.988282 49.207031-43.574219zm0 0" fill="#ffd46a"/><path d="m464.542969 214.03125c-12.207031 11.769531-18.484375 22.898438-18.484375 22.898438l12.824218 71.359374c10.027344-6.53125 18.171876-13.675781 24.789063-21.109374-2.308594-25.527344-8.796875-50.179688-19.128906-73.148438zm0 0" fill="#ffa92d"/><path d="m52.390625 308.292969 12.824219-71.363281s-6.28125-11.128907-18.484375-22.898438c-10.332031 22.96875-16.820313 47.621094-19.128907 73.152344 6.613282 7.433594 14.761719 14.574218 24.789063 21.109375zm0 0" fill="#ffa92d"/><path d="m458.882812 308.292969c0-112.507813-90.996093-203.710938-203.246093-203.710938s-203.246094 91.203125-203.246094 203.710938c0 112.503906 90.996094 203.707031 203.246094 203.707031s203.246093-91.203125 203.246093-203.707031zm0 0" fill="#69d283"/><path d="m93.597656 308.292969c0-105.535157 80.070313-192.324219 182.640625-202.671875-6.773437-.683594-13.648437-1.039063-20.601562-1.039063-112.25 0-203.246094 91.203125-203.246094 203.710938 0 112.503906 90.996094 203.707031 203.246094 203.707031 6.953125 0 13.828125-.351562 20.601562-1.035156-102.570312-10.351563-182.640625-97.140625-182.640625-202.671875zm0 0" fill="#00c67f"/><path d="m159.558594 369.847656h-26.660156c-4.265626 0-7.726563-3.460937-7.726563-7.726562s3.460937-7.726563 7.726563-7.726563h26.660156c4.265625 0 7.726562 3.460938 7.726562 7.726563s-3.460937 7.726562-7.726562 7.726562zm0 0" fill="#ff8cb5"/><g fill="#454f59"><path d="m245.097656 364.785156c0 7.484375-6.070312 13.550782-13.550781 13.550782-7.484375 0-13.550781-6.066407-13.550781-13.550782s6.066406-13.550781 13.550781-13.550781c7.480469 0 13.550781 6.066406 13.550781 13.550781zm0 0"/><path d="m359.714844 340.171875c-4.265625 0-7.726563-3.457031-7.726563-7.722656v-41.152344c0-4.265625 3.460938-7.726563 7.726563-7.726563s7.726562 3.460938 7.726562 7.726563v41.152344c0 4.265625-3.457031 7.722656-7.726562 7.722656zm0 0"/><path d="m151.554688 340.171875c-4.265626 0-7.726563-3.457031-7.726563-7.722656v-41.152344c0-4.265625 3.460937-7.726563 7.726563-7.726563 4.269531 0 7.726562 3.460938 7.726562 7.726563v41.152344c0 4.265625-3.457031 7.722656-7.726562 7.722656zm0 0"/></g><path d="m296.839844 252.617188c8.050781-39.101563 31.304687-36.148438 38.90625-21.28125 1.371094 2.683593 5.289062 2.410156 6.386718-.394532 24.472657-62.582031 45.980469-58.011718 50.496094-39.78125.78125 3.164063 5.113282 3.582032 6.558594.660156 19.457031-39.34375 42.003906-50.949218 52.792969-16.132812 9.648437 31.152344-.882813 65.050781-25.945313 85.917969l-47.671875 39.691406c-18.835937 15.679687-46.226562 15.511719-64.867187-.394531-13.910156-11.871094-20.34375-30.375-16.65625-48.285156zm0 0" fill="#fc5c70"/><path d="m378.371094 369.847656h-26.660156c-4.265626 0-7.726563-3.460937-7.726563-7.726562s3.460937-7.726563 7.726563-7.726563h26.660156c4.265625 0 7.726562 3.460938 7.726562 7.726563s-3.460937 7.726562-7.726562 7.726562zm0 0" fill="#ff8cb5"/><path d="m293.273438 364.785156c0 7.484375-6.066407 13.550782-13.546876 13.550782-7.484374 0-13.550781-6.066407-13.550781-13.550782s6.066407-13.550781 13.550781-13.550781c7.480469 0 13.546876 6.066406 13.546876 13.550781zm0 0" fill="#454f59"/><path d="m255.636719 413.910156c-9.25 0-17.929688-3.867187-23.824219-10.609375-2.808594-3.210937-2.480469-8.09375.734375-10.902343 3.210937-2.808594 8.089844-2.480469 10.902344.734374 2.957031 3.382813 7.398437 5.324219 12.1875 5.324219 4.789062 0 9.226562-1.941406 12.1875-5.324219 2.808593-3.214843 7.6875-3.542968 10.902343-.734374 3.210938 2.808593 3.539063 7.691406.730469 10.902343-5.890625 6.742188-14.574219 10.609375-23.820312 10.609375zm0 0" fill="#454f59"/><path d="m304.917969 160.070312c.292969-.429687 17.320312-25.667968 33.1875-60.101562-9-8.664062-21.304688-23.53125-30.382813-46.332031-3.800781-9.539063.855469-20.351563 10.394532-24.152344 9.539062-3.796875 20.355468.855469 24.152343 10.398437 3.433594 8.625 7.414063 15.597657 11.316407 21.160157 4.824218-14.636719 8.601562-29.796875 10.378906-44.65625 1.21875-10.195313 10.472656-17.472657 20.671875-16.253907 10.195312 1.21875 17.472656 10.476563 16.253906 20.671876-2.550781 21.292968-8.484375 42.765624-15.785156 62.777343 11.503906-5.125 19.765625-12 25.210937-17.714843 5.714844-6 14.652344-7.59375 22.035156-3.828126 11.082032 5.660157 13.570313 20.347657 5.046876 29.414063-13.121094 13.953125-35.863282 31.027344-70.988282 35.625-15.140625 30.789063-29.589844 52.214844-30.75 53.917969-3.597656 5.289062-9.441406 8.132812-15.386718 8.132812-3.605469 0-7.246094-1.042968-10.445313-3.222656-8.492187-5.78125-10.6875-17.347656-4.910156-25.835938zm0 0" fill="#ffd46a"/><path d="m214.433594 252.617188c-8.054688-39.101563-31.308594-36.148438-38.90625-21.28125-1.371094 2.683593-5.292969 2.410156-6.390625-.394532-24.46875-62.582031-45.976563-58.011718-50.492188-39.78125-.785156 3.164063-5.117187 3.582032-6.5625.660156-19.457031-39.34375-42.003906-50.949218-52.789062-16.132812-9.652344 31.152344.882812 65.050781 25.945312 85.917969l47.671875 39.691406c18.832032 15.679687 46.222656 15.511719 64.867188-.394531 13.910156-11.871094 20.34375-30.375 16.65625-48.285156zm0 0" fill="#fc5c70"/><path d="m206.355469 160.070312c-.296875-.429687-17.324219-25.667968-33.1875-60.101562 8.996093-8.664062 21.304687-23.53125 30.382812-46.332031 3.800781-9.539063-.855469-20.351563-10.394531-24.152344-9.539062-3.796875-20.355469.855469-24.152344 10.398437-3.4375 8.625-7.414062 15.597657-11.316406 21.160157-4.824219-14.636719-8.601562-29.796875-10.378906-44.65625-1.222656-10.195313-10.472656-17.472657-20.671875-16.253907s-17.472657 10.476563-16.253907 20.671876c2.546876 21.292968 8.480469 42.765624 15.78125 62.777343-11.503906-5.125-19.761718-12-25.210937-17.714843-5.714844-6-14.652344-7.59375-22.035156-3.828126-11.082031 5.660157-13.570313 20.347657-5.046875 29.414063 13.121094 13.953125 35.863281 31.027344 70.988281 35.625 15.140625 30.789063 29.589844 52.214844 30.75 53.917969 3.601563 5.289062 9.441406 8.132812 15.386719 8.132812 3.605468 0 7.246094-1.042968 10.449218-3.222656 8.488282-5.78125 10.6875-17.347656 4.910157-25.835938zm0 0" fill="#ffd46a"/></svg>